<svg xmlns="http://www.w3.org/2000/svg" viewBox="0 0 264 264" width="264" height="264"><defs></defs><g transform="matrix(1,0,0,1,701.695857534,360.395957206)">
<g>
	<g transform="matrix(1,0,0,1,3.357687549,-0.152952529)">
		<path d="M-705.053545,-360.243005L -440.355743,-360.243005 L -440.355743,-95.545203 L -705.053545,-95.545203 L -705.053545,-360.243005 Z" fill="none"/>
	</g>
	<g transform="matrix(1,0,0,1,3.357687549,-0.152952529)">
		<path d="M-672.542739,-294.368622C-672.542739,-312.708436 -657.645294,-327.605881 -639.30548,-327.605881 L -506.356443,-327.605881 C-488.01663,-327.605881 -473.119184,-312.708436 -473.119184,-294.368622 L -473.119184,-161.419585 C-473.119184,-143.079772 -488.01663,-128.182326 -506.356443,-128.182326 L -639.30548,-128.182326 C-657.645294,-128.182326 -672.542739,-143.079772 -672.542739,-161.419585 L -672.542739,-294.368622 Z" fill="none" stroke="#002d55" stroke-width="20" stroke-miterlimit="6.699999999999999"/>
	</g>
	<g transform="matrix(1,0,0,1,3.357687549,-0.152952529)">
		<path d="M-621.088055,-217.242128C-621.088055,-217.242128 -631.202391,-160.544383 -631.202391,-160.544383 C-631.202391,-160.544383 -575.707884,-174.833336 -575.707884,-174.833336 C-575.707884,-174.833336 -575.594613,-174.727482 -575.594613,-174.727482 C-575.594613,-174.727482 -575.428735,-174.905212 -575.428735,-174.905212 C-575.428735,-174.905212 -522.290152,-231.840708 -522.290152,-231.840708 C-522.290152,-231.840708 -567.949472,-274.177623 -567.949472,-274.177623 C-567.949472,-274.177623 -621.088055,-217.242128 -621.088055,-217.242128 L -621.088055,-217.242128 ZM-563.561956,-278.878641C-563.561956,-278.878641 -517.902636,-236.541725 -517.902636,-236.541725 C-517.902636,-236.541725 -500.854073,-254.808459 -500.854073,-254.808459 C-500.854073,-254.808459 -546.347515,-297.323105 -546.347515,-297.323105 C-546.347515,-297.323105 -563.561956,-278.878641 -563.561956,-278.878641 L -563.561956,-278.878641 Z" fill="#008ccd"/>
	</g>
</g></g></svg>