<svg xmlns="http://www.w3.org/2000/svg" viewBox="0 0 264 264" width="264" height="264"><defs></defs><g transform="matrix(1,0,0,1,-150.187603762,-81.599642794)">
<g>
	<g>
		<path d="M150.187604,81.599643L 414.885406,81.599643 L 414.885406,346.297445 L 150.187604,346.297445 L 150.187604,81.599643 Z" fill="none"/>
	</g>
	<g>
		<path d="M182.824727,147.474026C182.824727,129.134212 197.722173,114.236766 216.061986,114.236766 L 349.011023,114.236766 C367.350837,114.236766 382.248282,129.134212 382.248282,147.474026 L 382.248282,280.423062 C382.248282,298.762876 367.350837,313.660321 349.011023,313.660321 L 216.061986,313.660321 C197.722173,313.660321 182.824727,298.762876 182.824727,280.423062 L 182.824727,147.474026 Z" fill="none" stroke="#002d55" stroke-width="20" stroke-miterlimit="6.699999999999999"/>
	</g>
	<g>
		<path d="M43.283582,-12.686567C43.283582,-12.686567 -5.970149,-12.686567 -5.970149,-12.686567 C-5.970149,-12.686567 -5.970149,101.492537 -5.970149,101.492537 C-5.970149,101.492537 43.283582,101.492537 43.283582,101.492537 " transform="matrix(1,0,0,1,239.252922751,169.545558798)" fill="none" stroke="#008ccd" stroke-width="17.2" stroke-linecap="round" stroke-linejoin="round"/>
	</g>
	<g>
		<path d="M-85.408752,4.166281C-85.408752,4.166281 17.205624,4.477612 17.205624,4.477612 C17.205624,4.477612 -13.038979,-25.766991 -13.038979,-25.766991 C-13.038979,-25.766991 17.205624,4.477612 17.205624,4.477612 C17.205624,4.477612 -13.038979,34.722215 -13.038979,34.722215 " transform="matrix(0.573574316,0,0,0.573574316,310.005925096,211.380300666)" fill="none" stroke="#008ccd" stroke-width="23.400000000000006" stroke-linecap="round" stroke-linejoin="round"/>
	</g>
</g></g></svg>