<svg xmlns="http://www.w3.org/2000/svg" viewBox="0 0 264 264" width="264" height="264"><defs></defs><g transform="matrix(1,0,0,1,705.06067862,-79.804042794)">
<g>
	<g>
		<path d="M-705.060679,79.804043L -440.362876,79.804043 L -440.362876,344.501845 L -705.060679,344.501845 L -705.060679,79.804043 Z" fill="none"/>
	</g>
	<g>
		<path d="M-672.423555,145.678426C-672.423555,127.338612 -657.52611,112.441166 -639.186296,112.441166 L -506.237259,112.441166 C-487.897446,112.441166 -473,127.338612 -473,145.678426 L -473,278.627462 C-473,296.967276 -487.897446,311.864721 -506.237259,311.864721 L -639.186296,311.864721 C-657.52611,311.864721 -672.423555,296.967276 -672.423555,278.627462 L -672.423555,145.678426 Z" fill="none" stroke="#002d55" stroke-width="20" stroke-miterlimit="6.699999999999999"/>
	</g>
	<g>
		<path d="M-543.636231,227.837104C-543.636231,227.837104 -592.491489,234.507379 -592.491489,234.507379 Q-595.916766,234.867935 -597.449126,233.605991 Q-598.981486,232.344047 -599.52232,228.91877 Q-603.308151,205.122113 -603.308151,205.122113 Q-604.389818,198.632116 -597.358987,197.730728 Q-561.483724,192.682952 -561.483724,192.682952 Q-556.616226,191.961841 -556.616226,187.094343 Q-556.616226,182.046567 -561.483724,182.046567 Q-611.24037,182.046567 -611.24037,182.046567 Q-617.730368,182.046567 -617.730368,175.55657 Q-617.730368,153.742968 -617.730368,153.742968 Q-617.730368,147.252971 -611.24037,147.252971 Q-553.010672,147.252971 -553.010672,147.252971 Q-535.343457,147.252971 -525.518322,155.365467 Q-515.693187,163.477964 -515.693187,178.981846 Q-515.693187,197.911005 -515.693187,197.911005 Q-515.693187,213.054332 -523.264851,219.54433 Q-530.836515,226.034327 -543.636231,227.837104 Q-543.636231,227.837104 -543.636231,227.837104 ZM-563.827334,277.052917C-563.827334,277.052917 -596.818154,277.052917 -596.818154,277.052917 Q-603.308151,277.052917 -603.308151,270.56292 Q-603.308151,246.946541 -603.308151,246.946541 Q-603.308151,243.340987 -601.775791,241.898765 Q-600.24343,240.456543 -596.818154,240.456543 Q-563.827334,240.456543 -563.827334,240.456543 Q-557.337337,240.456543 -557.337337,246.946541 Q-557.337337,270.56292 -557.337337,270.56292 Q-557.337337,277.052917 -563.827334,277.052917 Q-563.827334,277.052917 -563.827334,277.052917 Z" fill="#008ccd"/>
	</g>
</g></g></svg>