<svg xmlns="http://www.w3.org/2000/svg" viewBox="0 0 264 264" width="264" height="264"><defs></defs><g transform="matrix(1,0,0,1,314.753419828,358.600357206)">
<g>
	<g>
		<path d="M-314.75342,-358.600357L -50.055618,-358.600357 L -50.055618,-93.902555 L -314.75342,-93.902555 L -314.75342,-358.600357 Z" fill="none"/>
	</g>
	<g>
		<path d="M-282.116296,-292.725974C-282.116296,-311.065788 -267.218851,-325.963234 -248.879037,-325.963234 L -115.93,-325.963234 C-97.590187,-325.963234 -82.692741,-311.065788 -82.692741,-292.725974 L -82.692741,-159.776938 C-82.692741,-141.437124 -97.590187,-126.539679 -115.93,-126.539679 L -248.879037,-126.539679 C-267.218851,-126.539679 -282.116296,-141.437124 -282.116296,-159.776938 L -282.116296,-292.725974 Z" transform="matrix(1,0,0,1,0,0)" fill="none" stroke="#002d55" stroke-width="20" stroke-miterlimit="6.699999999999999"/>
	</g>
	<g>
		<path d="M-247.297188,-259.340411L -209.777188,-259.340411 L -209.777188,-175.44975 L -247.297188,-175.44975 L -247.297188,-259.340411 Z" fill="#008ccd"/>
	</g>
	<g>
		<path d="M-242.716026,-157.100441C-242.716026,-157.100441 -122.093012,-157.100441 -122.093012,-157.100441 " transform="matrix(1.173525479,0,0,1,31.895878699,-6.234144493)" fill="none" stroke="#008ccd" stroke-width="10" stroke-linecap="round"/>
	</g>
	<g>
		<path d="M-201.164519,-296.329668L -163.644519,-296.329668 L -163.644519,-175.44975 L -201.164519,-175.44975 L -201.164519,-296.329668 Z" fill="#008ccd"/>
	</g>
	<g>
		<path d="M-155.03185,-275.228042L -117.51185,-275.228042 L -117.51185,-175.44975 L -155.03185,-175.44975 L -155.03185,-275.228042 Z" fill="#008ccd"/>
	</g>
</g></g></svg>