<svg xmlns="http://www.w3.org/2000/svg" viewBox="0 0 265 265" width="265" height="265"><defs></defs><g transform="matrix(1,0,0,1,314.909728755,-79.647733867)">
<g>
	<g>
		<path d="M-314.597111,79.960352L -49.899309,79.960352 L -49.899309,344.658154 L -314.597111,344.658154 L -314.597111,79.960352 Z" fill="none"/>
	</g>
	<g>
		<path d="M-173.15619,139.262791C-176.185759,138.88133 -179.272428,138.68476 -182.404519,138.68476 C-185.536609,138.68476 -188.623278,138.88133 -191.652848,139.262791 C-191.652848,139.262791 -195.480862,163.938305 -195.480862,163.938305 C-199.641006,165.066057 -203.586563,166.718628 -207.241887,168.820374 C-207.241887,168.820374 -227.388196,154.08535 -227.388196,154.08535 C-232.278034,157.880679 -236.676783,162.279428 -240.472113,167.169267 C-240.472113,167.169267 -225.737089,187.315576 -225.737089,187.315576 C-227.838834,190.970899 -229.491406,194.916456 -230.619157,199.076601 C-230.619157,199.076601 -255.294671,202.904615 -255.294671,202.904615 C-255.676133,205.934184 -255.872702,209.020853 -255.872702,212.152944 C-255.872702,215.285034 -255.676133,218.371703 -255.294671,221.401273 C-255.294671,221.401273 -230.619157,225.229287 -230.619157,225.229287 C-229.491406,229.389431 -227.838834,233.334989 -225.737089,236.990312 C-225.737089,236.990312 -240.472113,257.136621 -240.472113,257.136621 C-236.676783,262.026459 -232.278034,266.425209 -227.388196,270.220538 C-227.388196,270.220538 -207.241887,255.485514 -207.241887,255.485514 C-203.586563,257.587259 -199.641006,259.239831 -195.480862,260.367583 C-195.480862,260.367583 -191.652848,285.043097 -191.652848,285.043097 C-188.623278,285.424558 -185.536609,285.621128 -182.404519,285.621128 C-179.272428,285.621128 -176.185759,285.424558 -173.15619,285.043097 C-173.15619,285.043097 -169.328176,260.367583 -169.328176,260.367583 C-165.168031,259.239831 -161.222474,257.587259 -157.56715,255.485514 C-157.56715,255.485514 -137.420842,270.220538 -137.420842,270.220538 C-132.531003,266.425209 -128.132254,262.026459 -124.336925,257.136621 C-124.336925,257.136621 -139.071949,236.990312 -139.071949,236.990312 C-136.970203,233.334989 -135.317632,229.389431 -134.18988,225.229287 C-134.18988,225.229287 -109.514366,221.401273 -109.514366,221.401273 C-109.132905,218.371703 -108.936335,215.285034 -108.936335,212.152944 C-108.936335,209.020853 -109.132905,205.934184 -109.514366,202.904615 C-109.514366,202.904615 -134.18988,199.076601 -134.18988,199.076601 C-135.317632,194.916456 -136.970203,190.970899 -139.071949,187.315576 C-139.071949,187.315576 -124.336925,167.169267 -124.336925,167.169267 C-128.132254,162.279428 -132.531003,157.880679 -137.420842,154.08535 C-137.420842,154.08535 -157.56715,168.820374 -157.56715,168.820374 C-161.222474,166.718628 -165.168031,165.066057 -169.328176,163.938305 C-169.328176,163.938305 -173.15619,139.262791 -173.15619,139.262791 L -173.15619,139.262791 ZM-182.24821,197.153242C-173.885354,197.153242 -167.092199,203.946397 -167.092199,212.309253 C-167.092199,220.672109 -173.885354,227.465263 -182.24821,227.465263 C-190.611066,227.465263 -197.40422,220.672109 -197.40422,212.309253 C-197.40422,203.946397 -190.611066,197.153242 -182.24821,197.153242 L -182.24821,197.153242 Z" fill="#008ccd"/>
	</g>
	<g>
		<path d="M-282.116296,145.678426C-282.116296,127.338612 -267.218851,112.441166 -248.879037,112.441166 L -115.93,112.441166 C-97.590187,112.441166 -82.692741,127.338612 -82.692741,145.678426 L -82.692741,278.627462 C-82.692741,296.967276 -97.590187,311.864721 -115.93,311.864721 L -248.879037,311.864721 C-267.218851,311.864721 -282.116296,296.967276 -282.116296,278.627462 L -282.116296,145.678426 Z" transform="matrix(1,0,0,1,0,0)" fill="none" stroke="#002d55" stroke-width="20" stroke-miterlimit="6.699999999999999"/>
	</g>
</g></g></svg>