<svg xmlns="http://www.w3.org/2000/svg" viewBox="0 0 264 264" width="264" height="264"><defs></defs><g transform="matrix(1,0,0,1,-150.187603762,358.600357206)">
<g>
	<g>
		<path d="M150.187604,-358.600357L 414.885406,-358.600357 L 414.885406,-93.902555 L 150.187604,-93.902555 L 150.187604,-358.600357 Z" fill="none"/>
	</g>
	<g>
		<path d="M182.824727,-292.725974C182.824727,-311.065788 197.722173,-325.963234 216.061986,-325.963234 L 349.011023,-325.963234 C367.350837,-325.963234 382.248282,-311.065788 382.248282,-292.725974 L 382.248282,-159.776938 C382.248282,-141.437124 367.350837,-126.539679 349.011023,-126.539679 L 216.061986,-126.539679 C197.722173,-126.539679 182.824727,-141.437124 182.824727,-159.776938 L 182.824727,-292.725974 Z" fill="none" stroke="#002d55" stroke-width="20" stroke-miterlimit="6.699999999999999"/>
	</g>
</g>
<g>
	<path d="M282.536505,-302.888915C303.680196,-302.888915 320.855234,-285.713877 320.855234,-264.570185 C320.855234,-243.426494 303.680196,-226.251456 282.536505,-226.251456 C261.392813,-226.251456 244.217776,-243.426494 244.217776,-264.570185 C244.217776,-285.713877 261.392813,-302.888915 282.536505,-302.888915 Z" fill="#008ccd"/>
</g>
<g>
	<path d="M335.354213,-156.962196C335.354213,-192.332341 311.680512,-221.063539 282.536505,-221.063539 C253.392498,-221.063539 229.718797,-192.332341 229.718797,-156.962196 C229.718797,-156.962196 335.354213,-156.962196 335.354213,-156.962196 L 335.354213,-156.962196 Z" fill="#008ccd"/>
</g></g></svg>